<svg width="964" height="1632" viewBox="0 0 964 1632" fill="none" xmlns="http://www.w3.org/2000/svg">
<g opacity="0.1">
<circle cx="941.229" cy="1609.2" r="22.7717" transform="rotate(-90 941.229 1609.2)" fill="#D9D9D9"/>
<circle cx="440.252" cy="1609.2" r="22.7717" transform="rotate(-90 440.252 1609.2)" fill="#D9D9D9"/>
<circle cx="440.252" cy="774.236" r="22.7717" transform="rotate(-90 440.252 774.236)" fill="#D9D9D9"/>
<circle cx="941.229" cy="774.236" r="22.7717" transform="rotate(-90 941.229 774.236)" fill="#D9D9D9"/>
<circle cx="690.74" cy="1609.2" r="22.7717" transform="rotate(-90 690.74 1609.2)" fill="#D9D9D9"/>
<circle cx="189.764" cy="1609.2" r="22.7717" transform="rotate(-90 189.764 1609.2)" fill="#D9D9D9"/>
<circle cx="189.764" cy="774.236" r="22.7717" transform="rotate(-90 189.764 774.236)" fill="#D9D9D9"/>
<circle cx="690.74" cy="774.236" r="22.7717" transform="rotate(-90 690.74 774.236)" fill="#D9D9D9"/>
<circle cx="690.74" cy="1191.72" r="22.7717" transform="rotate(-90 690.74 1191.72)" fill="#D9D9D9"/>
<circle cx="189.764" cy="1191.72" r="22.7717" transform="rotate(-90 189.764 1191.72)" fill="#D9D9D9"/>
<circle cx="189.764" cy="356.756" r="22.7717" transform="rotate(-90 189.764 356.756)" fill="#D9D9D9"/>
<circle cx="690.74" cy="356.756" r="22.7717" transform="rotate(-90 690.74 356.756)" fill="#D9D9D9"/>
<circle cx="941.229" cy="1191.72" r="22.7717" transform="rotate(-90 941.229 1191.72)" fill="#D9D9D9"/>
<circle cx="440.252" cy="1191.72" r="22.7717" transform="rotate(-90 440.252 1191.72)" fill="#D9D9D9"/>
<circle cx="440.252" cy="356.756" r="22.7717" transform="rotate(-90 440.252 356.756)" fill="#D9D9D9"/>
<circle cx="941.229" cy="356.756" r="22.7717" transform="rotate(-90 941.229 356.756)" fill="#D9D9D9"/>
<circle cx="857.732" cy="1191.72" r="22.7717" transform="rotate(-90 857.732 1191.72)" fill="#D9D9D9"/>
<circle cx="356.756" cy="1191.72" r="22.7717" transform="rotate(-90 356.756 1191.72)" fill="#D9D9D9"/>
<circle cx="356.756" cy="356.756" r="22.7717" transform="rotate(-90 356.756 356.756)" fill="#D9D9D9"/>
<circle cx="857.732" cy="356.756" r="22.7717" transform="rotate(-90 857.732 356.756)" fill="#D9D9D9"/>
<circle cx="857.732" cy="1609.2" r="22.7717" transform="rotate(-90 857.732 1609.2)" fill="#D9D9D9"/>
<circle cx="356.756" cy="1609.2" r="22.7717" transform="rotate(-90 356.756 1609.2)" fill="#D9D9D9"/>
<circle cx="356.756" cy="774.236" r="22.7717" transform="rotate(-90 356.756 774.236)" fill="#D9D9D9"/>
<circle cx="857.732" cy="774.236" r="22.7717" transform="rotate(-90 857.732 774.236)" fill="#D9D9D9"/>
<circle cx="607.244" cy="1609.2" r="22.7717" transform="rotate(-90 607.244 1609.2)" fill="#D9D9D9"/>
<circle cx="106.268" cy="1609.2" r="22.7717" transform="rotate(-90 106.268 1609.2)" fill="#D9D9D9"/>
<circle cx="106.268" cy="774.236" r="22.7717" transform="rotate(-90 106.268 774.236)" fill="#D9D9D9"/>
<circle cx="607.244" cy="774.236" r="22.7717" transform="rotate(-90 607.244 774.236)" fill="#D9D9D9"/>
<circle cx="607.244" cy="1191.72" r="22.7717" transform="rotate(-90 607.244 1191.72)" fill="#D9D9D9"/>
<circle cx="106.268" cy="1191.72" r="22.7717" transform="rotate(-90 106.268 1191.72)" fill="#D9D9D9"/>
<circle cx="106.268" cy="356.756" r="22.7717" transform="rotate(-90 106.268 356.756)" fill="#D9D9D9"/>
<circle cx="607.244" cy="356.756" r="22.7717" transform="rotate(-90 607.244 356.756)" fill="#D9D9D9"/>
<circle cx="774.236" cy="1609.2" r="22.7717" transform="rotate(-90 774.236 1609.2)" fill="#D9D9D9"/>
<circle cx="273.26" cy="1609.2" r="22.7717" transform="rotate(-90 273.26 1609.2)" fill="#D9D9D9"/>
<circle cx="273.26" cy="774.236" r="22.7717" transform="rotate(-90 273.26 774.236)" fill="#D9D9D9"/>
<circle cx="774.236" cy="774.236" r="22.7717" transform="matrix(0 -1 1 0 0 1548.47)" fill="#D9D9D9"/>
<circle cx="774.236" cy="1191.72" r="22.7717" transform="rotate(-90 774.236 1191.72)" fill="#D9D9D9"/>
<circle cx="273.26" cy="1191.72" r="22.7717" transform="rotate(-90 273.26 1191.72)" fill="#D9D9D9"/>
<circle cx="273.26" cy="356.756" r="22.7717" transform="rotate(-90 273.26 356.756)" fill="#D9D9D9"/>
<circle cx="774.236" cy="356.756" r="22.7717" transform="rotate(-90 774.236 356.756)" fill="#D9D9D9"/>
<circle cx="523.748" cy="1609.2" r="22.7717" transform="rotate(-90 523.748 1609.2)" fill="#D9D9D9"/>
<circle cx="22.7717" cy="1609.2" r="22.7717" transform="rotate(-90 22.7717 1609.2)" fill="#D9D9D9"/>
<circle cx="22.7717" cy="774.236" r="22.7717" transform="rotate(-90 22.7717 774.236)" fill="#D9D9D9"/>
<circle cx="523.748" cy="774.236" r="22.7717" transform="rotate(-90 523.748 774.236)" fill="#D9D9D9"/>
<circle cx="523.748" cy="1191.72" r="22.7717" transform="rotate(-90 523.748 1191.72)" fill="#D9D9D9"/>
<circle cx="22.7717" cy="1191.72" r="22.7717" transform="rotate(-90 22.7717 1191.72)" fill="#D9D9D9"/>
<circle cx="22.7717" cy="356.756" r="22.7717" transform="rotate(-90 22.7717 356.756)" fill="#D9D9D9"/>
<circle cx="523.748" cy="356.756" r="22.7717" transform="rotate(-90 523.748 356.756)" fill="#D9D9D9"/>
<circle cx="941.229" cy="1525.7" r="22.7717" transform="rotate(-90 941.229 1525.7)" fill="#D9D9D9"/>
<circle cx="440.252" cy="1525.7" r="22.7717" transform="rotate(-90 440.252 1525.7)" fill="#D9D9D9"/>
<circle cx="440.252" cy="690.74" r="22.7717" transform="rotate(-90 440.252 690.74)" fill="#D9D9D9"/>
<circle cx="941.229" cy="690.74" r="22.7717" transform="rotate(-90 941.229 690.74)" fill="#D9D9D9"/>
<circle cx="690.74" cy="1525.7" r="22.7717" transform="rotate(-90 690.74 1525.7)" fill="#D9D9D9"/>
<circle cx="189.764" cy="1525.7" r="22.7717" transform="rotate(-90 189.764 1525.7)" fill="#D9D9D9"/>
<circle cx="189.764" cy="690.74" r="22.7717" transform="rotate(-90 189.764 690.74)" fill="#D9D9D9"/>
<circle cx="690.74" cy="690.74" r="22.7717" transform="rotate(-90 690.74 690.74)" fill="#D9D9D9"/>
<circle cx="690.74" cy="1108.22" r="22.7717" transform="rotate(-90 690.74 1108.22)" fill="#D9D9D9"/>
<circle cx="189.764" cy="1108.22" r="22.7717" transform="rotate(-90 189.764 1108.22)" fill="#D9D9D9"/>
<circle cx="189.764" cy="273.26" r="22.7717" transform="rotate(-90 189.764 273.26)" fill="#D9D9D9"/>
<circle cx="690.74" cy="273.26" r="22.7717" transform="rotate(-90 690.74 273.26)" fill="#D9D9D9"/>
<circle cx="941.229" cy="1108.22" r="22.7717" transform="rotate(-90 941.229 1108.22)" fill="#D9D9D9"/>
<circle cx="440.252" cy="1108.22" r="22.7717" transform="rotate(-90 440.252 1108.22)" fill="#D9D9D9"/>
<circle cx="440.252" cy="273.26" r="22.7717" transform="rotate(-90 440.252 273.26)" fill="#D9D9D9"/>
<circle cx="941.229" cy="273.26" r="22.7717" transform="rotate(-90 941.229 273.26)" fill="#D9D9D9"/>
<circle cx="857.732" cy="1108.22" r="22.7717" transform="rotate(-90 857.732 1108.22)" fill="#D9D9D9"/>
<circle cx="356.756" cy="1108.22" r="22.7717" transform="rotate(-90 356.756 1108.22)" fill="#D9D9D9"/>
<circle cx="356.756" cy="273.26" r="22.7717" transform="rotate(-90 356.756 273.26)" fill="#D9D9D9"/>
<circle cx="857.732" cy="273.26" r="22.7717" transform="rotate(-90 857.732 273.26)" fill="#D9D9D9"/>
<circle cx="857.732" cy="1525.7" r="22.7717" transform="rotate(-90 857.732 1525.7)" fill="#D9D9D9"/>
<circle cx="356.756" cy="1525.7" r="22.7717" transform="rotate(-90 356.756 1525.7)" fill="#D9D9D9"/>
<circle cx="356.756" cy="690.74" r="22.7717" transform="rotate(-90 356.756 690.74)" fill="#D9D9D9"/>
<circle cx="857.732" cy="690.74" r="22.7717" transform="rotate(-90 857.732 690.74)" fill="#D9D9D9"/>
<circle cx="607.244" cy="1525.7" r="22.7717" transform="rotate(-90 607.244 1525.7)" fill="#D9D9D9"/>
<circle cx="106.268" cy="1525.7" r="22.7717" transform="rotate(-90 106.268 1525.7)" fill="#D9D9D9"/>
<circle cx="106.268" cy="690.74" r="22.7717" transform="rotate(-90 106.268 690.74)" fill="#D9D9D9"/>
<circle cx="607.244" cy="690.74" r="22.7717" transform="rotate(-90 607.244 690.74)" fill="#D9D9D9"/>
<circle cx="607.244" cy="1108.22" r="22.7717" transform="rotate(-90 607.244 1108.22)" fill="#D9D9D9"/>
<circle cx="106.268" cy="1108.22" r="22.7717" transform="rotate(-90 106.268 1108.22)" fill="#D9D9D9"/>
<circle cx="106.268" cy="273.26" r="22.7717" transform="rotate(-90 106.268 273.26)" fill="#D9D9D9"/>
<circle cx="607.244" cy="273.26" r="22.7717" transform="rotate(-90 607.244 273.26)" fill="#D9D9D9"/>
<circle cx="774.236" cy="1525.7" r="22.7717" transform="rotate(-90 774.236 1525.7)" fill="#D9D9D9"/>
<circle cx="273.26" cy="1525.7" r="22.7717" transform="rotate(-90 273.26 1525.7)" fill="#D9D9D9"/>
<circle cx="273.26" cy="690.74" r="22.7717" transform="rotate(-90 273.26 690.74)" fill="#D9D9D9"/>
<circle cx="774.236" cy="690.74" r="22.7717" transform="rotate(-90 774.236 690.74)" fill="#D9D9D9"/>
<circle cx="774.236" cy="1108.22" r="22.7717" transform="rotate(-90 774.236 1108.22)" fill="#D9D9D9"/>
<circle cx="273.26" cy="1108.22" r="22.7717" transform="rotate(-90 273.26 1108.22)" fill="#D9D9D9"/>
<circle cx="273.26" cy="273.26" r="22.7717" transform="rotate(-90 273.26 273.26)" fill="#D9D9D9"/>
<circle cx="774.236" cy="273.26" r="22.7717" transform="rotate(-90 774.236 273.26)" fill="#D9D9D9"/>
<circle cx="523.748" cy="1525.7" r="22.7717" transform="rotate(-90 523.748 1525.7)" fill="#D9D9D9"/>
<circle cx="22.7717" cy="1525.7" r="22.7717" transform="rotate(-90 22.7717 1525.7)" fill="#D9D9D9"/>
<circle cx="22.7717" cy="690.74" r="22.7717" transform="rotate(-90 22.7717 690.74)" fill="#D9D9D9"/>
<circle cx="523.748" cy="690.74" r="22.7717" transform="rotate(-90 523.748 690.74)" fill="#D9D9D9"/>
<circle cx="523.748" cy="1108.22" r="22.7717" transform="rotate(-90 523.748 1108.22)" fill="#D9D9D9"/>
<circle cx="22.7717" cy="1108.22" r="22.7717" transform="rotate(-90 22.7717 1108.22)" fill="#D9D9D9"/>
<circle cx="22.7717" cy="273.26" r="22.7717" transform="rotate(-90 22.7717 273.26)" fill="#D9D9D9"/>
<circle cx="523.748" cy="273.26" r="22.7717" transform="rotate(-90 523.748 273.26)" fill="#D9D9D9"/>
<circle cx="941.229" cy="1442.2" r="22.7717" transform="rotate(-90 941.229 1442.2)" fill="#D9D9D9"/>
<circle cx="440.252" cy="1442.2" r="22.7717" transform="rotate(-90 440.252 1442.2)" fill="#D9D9D9"/>
<circle cx="440.252" cy="607.244" r="22.7717" transform="rotate(-90 440.252 607.244)" fill="#D9D9D9"/>
<circle cx="941.229" cy="607.244" r="22.7717" transform="rotate(-90 941.229 607.244)" fill="#D9D9D9"/>
<circle cx="690.74" cy="1442.2" r="22.7717" transform="rotate(-90 690.74 1442.2)" fill="#D9D9D9"/>
<circle cx="189.764" cy="1442.2" r="22.7717" transform="rotate(-90 189.764 1442.2)" fill="#D9D9D9"/>
<circle cx="189.764" cy="607.244" r="22.7717" transform="rotate(-90 189.764 607.244)" fill="#D9D9D9"/>
<circle cx="690.74" cy="607.244" r="22.7717" transform="rotate(-90 690.74 607.244)" fill="#D9D9D9"/>
<circle cx="690.74" cy="1024.72" r="22.7717" transform="rotate(-90 690.74 1024.72)" fill="#D9D9D9"/>
<circle cx="189.764" cy="1024.72" r="22.7717" transform="rotate(-90 189.764 1024.72)" fill="#D9D9D9"/>
<circle cx="189.764" cy="189.764" r="22.7717" transform="rotate(-90 189.764 189.764)" fill="#D9D9D9"/>
<circle cx="690.74" cy="189.764" r="22.7717" transform="rotate(-90 690.74 189.764)" fill="#D9D9D9"/>
<circle cx="941.229" cy="1024.72" r="22.7717" transform="rotate(-90 941.229 1024.72)" fill="#D9D9D9"/>
<circle cx="440.252" cy="1024.72" r="22.7717" transform="rotate(-90 440.252 1024.72)" fill="#D9D9D9"/>
<circle cx="440.252" cy="189.764" r="22.7717" transform="rotate(-90 440.252 189.764)" fill="#D9D9D9"/>
<circle cx="941.229" cy="189.764" r="22.7717" transform="rotate(-90 941.229 189.764)" fill="#D9D9D9"/>
<circle cx="857.732" cy="1024.72" r="22.7717" transform="rotate(-90 857.732 1024.72)" fill="#D9D9D9"/>
<circle cx="356.756" cy="1024.72" r="22.7717" transform="rotate(-90 356.756 1024.72)" fill="#D9D9D9"/>
<circle cx="356.756" cy="189.764" r="22.7717" transform="rotate(-90 356.756 189.764)" fill="#D9D9D9"/>
<circle cx="857.732" cy="189.764" r="22.7717" transform="rotate(-90 857.732 189.764)" fill="#D9D9D9"/>
<circle cx="857.732" cy="1442.2" r="22.7717" transform="rotate(-90 857.732 1442.2)" fill="#D9D9D9"/>
<circle cx="356.756" cy="1442.2" r="22.7717" transform="rotate(-90 356.756 1442.2)" fill="#D9D9D9"/>
<circle cx="356.756" cy="607.244" r="22.7717" transform="rotate(-90 356.756 607.244)" fill="#D9D9D9"/>
<circle cx="857.732" cy="607.244" r="22.7717" transform="rotate(-90 857.732 607.244)" fill="#D9D9D9"/>
<circle cx="607.244" cy="1442.2" r="22.7717" transform="rotate(-90 607.244 1442.2)" fill="#D9D9D9"/>
<circle cx="106.268" cy="1442.2" r="22.7717" transform="rotate(-90 106.268 1442.2)" fill="#D9D9D9"/>
<circle cx="106.268" cy="607.244" r="22.7717" transform="rotate(-90 106.268 607.244)" fill="#D9D9D9"/>
<circle cx="607.244" cy="607.244" r="22.7717" transform="rotate(-90 607.244 607.244)" fill="#D9D9D9"/>
<circle cx="607.244" cy="1024.72" r="22.7717" transform="rotate(-90 607.244 1024.72)" fill="#D9D9D9"/>
<circle cx="106.268" cy="1024.72" r="22.7717" transform="rotate(-90 106.268 1024.72)" fill="#D9D9D9"/>
<circle cx="106.268" cy="189.764" r="22.7717" transform="rotate(-90 106.268 189.764)" fill="#D9D9D9"/>
<circle cx="607.244" cy="189.764" r="22.7717" transform="rotate(-90 607.244 189.764)" fill="#D9D9D9"/>
<circle cx="774.236" cy="1442.2" r="22.7717" transform="rotate(-90 774.236 1442.2)" fill="#D9D9D9"/>
<circle cx="273.26" cy="1442.2" r="22.7717" transform="rotate(-90 273.26 1442.2)" fill="#D9D9D9"/>
<circle cx="273.26" cy="607.244" r="22.7717" transform="rotate(-90 273.26 607.244)" fill="#D9D9D9"/>
<circle cx="774.236" cy="607.244" r="22.7717" transform="rotate(-90 774.236 607.244)" fill="#D9D9D9"/>
<circle cx="774.236" cy="1024.72" r="22.7717" transform="rotate(-90 774.236 1024.72)" fill="#D9D9D9"/>
<circle cx="273.26" cy="1024.72" r="22.7717" transform="rotate(-90 273.26 1024.72)" fill="#D9D9D9"/>
<circle cx="273.26" cy="189.764" r="22.7717" transform="rotate(-90 273.26 189.764)" fill="#D9D9D9"/>
<circle cx="774.236" cy="189.764" r="22.7717" transform="rotate(-90 774.236 189.764)" fill="#D9D9D9"/>
<circle cx="523.748" cy="1442.2" r="22.7717" transform="rotate(-90 523.748 1442.2)" fill="#D9D9D9"/>
<circle cx="22.7717" cy="1442.2" r="22.7717" transform="rotate(-90 22.7717 1442.2)" fill="#D9D9D9"/>
<circle cx="22.7717" cy="607.244" r="22.7717" transform="rotate(-90 22.7717 607.244)" fill="#D9D9D9"/>
<circle cx="523.748" cy="607.244" r="22.7717" transform="rotate(-90 523.748 607.244)" fill="#D9D9D9"/>
<circle cx="523.748" cy="1024.72" r="22.7717" transform="rotate(-90 523.748 1024.72)" fill="#D9D9D9"/>
<circle cx="22.7717" cy="1024.72" r="22.7717" transform="rotate(-90 22.7717 1024.72)" fill="#D9D9D9"/>
<circle cx="22.7717" cy="189.764" r="22.7717" transform="rotate(-90 22.7717 189.764)" fill="#D9D9D9"/>
<circle cx="523.748" cy="189.764" r="22.7717" transform="rotate(-90 523.748 189.764)" fill="#D9D9D9"/>
<circle cx="941.229" cy="1358.71" r="22.7717" transform="rotate(-90 941.229 1358.71)" fill="#D9D9D9"/>
<circle cx="440.252" cy="1358.71" r="22.7717" transform="rotate(-90 440.252 1358.71)" fill="#D9D9D9"/>
<circle cx="440.252" cy="523.748" r="22.7717" transform="rotate(-90 440.252 523.748)" fill="#D9D9D9"/>
<circle cx="941.229" cy="523.748" r="22.7717" transform="rotate(-90 941.229 523.748)" fill="#D9D9D9"/>
<circle cx="690.74" cy="1358.71" r="22.7717" transform="rotate(-90 690.74 1358.71)" fill="#D9D9D9"/>
<circle cx="189.764" cy="1358.71" r="22.7717" transform="rotate(-90 189.764 1358.71)" fill="#D9D9D9"/>
<circle cx="189.764" cy="523.748" r="22.7717" transform="rotate(-90 189.764 523.748)" fill="#D9D9D9"/>
<circle cx="690.74" cy="523.748" r="22.7717" transform="rotate(-90 690.74 523.748)" fill="#D9D9D9"/>
<circle cx="690.74" cy="941.228" r="22.7717" transform="rotate(-90 690.74 941.228)" fill="#D9D9D9"/>
<circle cx="189.764" cy="941.228" r="22.7717" transform="rotate(-90 189.764 941.228)" fill="#D9D9D9"/>
<circle cx="189.764" cy="106.268" r="22.7717" transform="rotate(-90 189.764 106.268)" fill="#D9D9D9"/>
<circle cx="690.74" cy="106.268" r="22.7717" transform="rotate(-90 690.74 106.268)" fill="#D9D9D9"/>
<circle cx="941.229" cy="941.228" r="22.7717" transform="rotate(-90 941.229 941.228)" fill="#D9D9D9"/>
<circle cx="440.252" cy="941.228" r="22.7717" transform="rotate(-90 440.252 941.228)" fill="#D9D9D9"/>
<circle cx="440.252" cy="106.268" r="22.7717" transform="rotate(-90 440.252 106.268)" fill="#D9D9D9"/>
<circle cx="941.229" cy="106.268" r="22.7717" transform="rotate(-90 941.229 106.268)" fill="#D9D9D9"/>
<circle cx="857.732" cy="941.228" r="22.7717" transform="rotate(-90 857.732 941.228)" fill="#D9D9D9"/>
<circle cx="356.756" cy="941.228" r="22.7717" transform="rotate(-90 356.756 941.228)" fill="#D9D9D9"/>
<circle cx="356.756" cy="106.268" r="22.7717" transform="rotate(-90 356.756 106.268)" fill="#D9D9D9"/>
<circle cx="857.732" cy="106.268" r="22.7717" transform="rotate(-90 857.732 106.268)" fill="#D9D9D9"/>
<circle cx="857.732" cy="1358.71" r="22.7717" transform="rotate(-90 857.732 1358.71)" fill="#D9D9D9"/>
<circle cx="356.756" cy="1358.71" r="22.7717" transform="rotate(-90 356.756 1358.71)" fill="#D9D9D9"/>
<circle cx="356.756" cy="523.748" r="22.7717" transform="rotate(-90 356.756 523.748)" fill="#D9D9D9"/>
<circle cx="857.732" cy="523.748" r="22.7717" transform="rotate(-90 857.732 523.748)" fill="#D9D9D9"/>
<circle cx="607.244" cy="1358.71" r="22.7717" transform="rotate(-90 607.244 1358.71)" fill="#D9D9D9"/>
<circle cx="106.268" cy="1358.71" r="22.7717" transform="rotate(-90 106.268 1358.71)" fill="#D9D9D9"/>
<circle cx="106.268" cy="523.748" r="22.7717" transform="rotate(-90 106.268 523.748)" fill="#D9D9D9"/>
<circle cx="607.244" cy="523.748" r="22.7717" transform="rotate(-90 607.244 523.748)" fill="#D9D9D9"/>
<circle cx="607.244" cy="941.228" r="22.7717" transform="rotate(-90 607.244 941.228)" fill="#D9D9D9"/>
<circle cx="106.268" cy="941.228" r="22.7717" transform="rotate(-90 106.268 941.228)" fill="#D9D9D9"/>
<circle cx="106.268" cy="106.268" r="22.7717" transform="rotate(-90 106.268 106.268)" fill="#D9D9D9"/>
<circle cx="607.244" cy="106.268" r="22.7717" transform="rotate(-90 607.244 106.268)" fill="#D9D9D9"/>
<circle cx="774.236" cy="1358.71" r="22.7717" transform="rotate(-90 774.236 1358.71)" fill="#D9D9D9"/>
<circle cx="273.26" cy="1358.71" r="22.7717" transform="rotate(-90 273.26 1358.71)" fill="#D9D9D9"/>
<circle cx="273.26" cy="523.748" r="22.7717" transform="rotate(-90 273.26 523.748)" fill="#D9D9D9"/>
<circle cx="774.236" cy="523.748" r="22.7717" transform="rotate(-90 774.236 523.748)" fill="#D9D9D9"/>
<circle cx="774.236" cy="941.228" r="22.7717" transform="rotate(-90 774.236 941.228)" fill="#D9D9D9"/>
<circle cx="273.26" cy="941.228" r="22.7717" transform="rotate(-90 273.26 941.228)" fill="#D9D9D9"/>
<circle cx="273.26" cy="106.268" r="22.7717" transform="rotate(-90 273.26 106.268)" fill="#D9D9D9"/>
<circle cx="774.236" cy="106.268" r="22.7717" transform="rotate(-90 774.236 106.268)" fill="#D9D9D9"/>
<circle cx="523.748" cy="1358.71" r="22.7717" transform="rotate(-90 523.748 1358.71)" fill="#D9D9D9"/>
<circle cx="22.7717" cy="1358.71" r="22.7717" transform="rotate(-90 22.7717 1358.71)" fill="#D9D9D9"/>
<circle cx="22.7717" cy="523.748" r="22.7717" transform="rotate(-90 22.7717 523.748)" fill="#D9D9D9"/>
<circle cx="523.748" cy="523.748" r="22.7717" transform="matrix(0 -1 1 0 0 1047.5)" fill="#D9D9D9"/>
<circle cx="523.748" cy="941.228" r="22.7717" transform="rotate(-90 523.748 941.228)" fill="#D9D9D9"/>
<circle cx="22.7717" cy="941.228" r="22.7717" transform="rotate(-90 22.7717 941.228)" fill="#D9D9D9"/>
<circle cx="22.7717" cy="106.268" r="22.7717" transform="rotate(-90 22.7717 106.268)" fill="#D9D9D9"/>
<circle cx="523.748" cy="106.268" r="22.7717" transform="rotate(-90 523.748 106.268)" fill="#D9D9D9"/>
<circle cx="941.229" cy="1275.21" r="22.7717" transform="rotate(-90 941.229 1275.21)" fill="#D9D9D9"/>
<circle cx="440.252" cy="1275.21" r="22.7717" transform="rotate(-90 440.252 1275.21)" fill="#D9D9D9"/>
<circle cx="440.252" cy="440.252" r="22.7717" transform="rotate(-90 440.252 440.252)" fill="#D9D9D9"/>
<circle cx="941.229" cy="440.252" r="22.7717" transform="rotate(-90 941.229 440.252)" fill="#D9D9D9"/>
<circle cx="690.74" cy="1275.21" r="22.7717" transform="rotate(-90 690.74 1275.21)" fill="#D9D9D9"/>
<circle cx="189.764" cy="1275.21" r="22.7717" transform="rotate(-90 189.764 1275.21)" fill="#D9D9D9"/>
<circle cx="189.764" cy="440.252" r="22.7717" transform="rotate(-90 189.764 440.252)" fill="#D9D9D9"/>
<circle cx="690.74" cy="440.252" r="22.7717" transform="rotate(-90 690.74 440.252)" fill="#D9D9D9"/>
<circle cx="690.74" cy="857.732" r="22.7717" transform="rotate(-90 690.74 857.732)" fill="#D9D9D9"/>
<circle cx="189.764" cy="857.732" r="22.7717" transform="rotate(-90 189.764 857.732)" fill="#D9D9D9"/>
<circle cx="189.764" cy="22.7717" r="22.7717" transform="rotate(-90 189.764 22.7717)" fill="#D9D9D9"/>
<circle cx="690.74" cy="22.7717" r="22.7717" transform="rotate(-90 690.74 22.7717)" fill="#D9D9D9"/>
<circle cx="941.229" cy="857.732" r="22.7717" transform="rotate(-90 941.229 857.732)" fill="#D9D9D9"/>
<circle cx="440.252" cy="857.732" r="22.7717" transform="rotate(-90 440.252 857.732)" fill="#D9D9D9"/>
<circle cx="440.252" cy="22.7717" r="22.7717" transform="rotate(-90 440.252 22.7717)" fill="#D9D9D9"/>
<circle cx="941.229" cy="22.7717" r="22.7717" transform="rotate(-90 941.229 22.7717)" fill="#D9D9D9"/>
<circle cx="857.732" cy="857.732" r="22.7717" transform="matrix(0 -1 1 0 0 1715.46)" fill="#D9D9D9"/>
<circle cx="356.756" cy="857.732" r="22.7717" transform="rotate(-90 356.756 857.732)" fill="#D9D9D9"/>
<circle cx="356.756" cy="22.7717" r="22.7717" transform="rotate(-90 356.756 22.7717)" fill="#D9D9D9"/>
<circle cx="857.732" cy="22.7717" r="22.7717" transform="rotate(-90 857.732 22.7717)" fill="#D9D9D9"/>
<circle cx="857.732" cy="1275.21" r="22.7717" transform="rotate(-90 857.732 1275.21)" fill="#D9D9D9"/>
<circle cx="356.756" cy="1275.21" r="22.7717" transform="rotate(-90 356.756 1275.21)" fill="#D9D9D9"/>
<circle cx="356.756" cy="440.252" r="22.7717" transform="rotate(-90 356.756 440.252)" fill="#D9D9D9"/>
<circle cx="857.732" cy="440.252" r="22.7717" transform="rotate(-90 857.732 440.252)" fill="#D9D9D9"/>
<circle cx="607.244" cy="1275.21" r="22.7717" transform="rotate(-90 607.244 1275.21)" fill="#D9D9D9"/>
<circle cx="106.268" cy="1275.21" r="22.7717" transform="rotate(-90 106.268 1275.21)" fill="#D9D9D9"/>
<circle cx="106.268" cy="440.252" r="22.7717" transform="rotate(-90 106.268 440.252)" fill="#D9D9D9"/>
<circle cx="607.244" cy="440.252" r="22.7717" transform="rotate(-90 607.244 440.252)" fill="#D9D9D9"/>
<circle cx="607.244" cy="857.732" r="22.7717" transform="rotate(-90 607.244 857.732)" fill="#D9D9D9"/>
<circle cx="106.268" cy="857.732" r="22.7717" transform="rotate(-90 106.268 857.732)" fill="#D9D9D9"/>
<circle cx="106.268" cy="22.7717" r="22.7717" transform="rotate(-90 106.268 22.7717)" fill="#D9D9D9"/>
<circle cx="607.244" cy="22.7717" r="22.7717" transform="rotate(-90 607.244 22.7717)" fill="#D9D9D9"/>
<circle cx="774.236" cy="1275.21" r="22.7717" transform="rotate(-90 774.236 1275.21)" fill="#D9D9D9"/>
<circle cx="273.26" cy="1275.21" r="22.7717" transform="rotate(-90 273.26 1275.21)" fill="#D9D9D9"/>
<circle cx="273.26" cy="440.252" r="22.7717" transform="rotate(-90 273.26 440.252)" fill="#D9D9D9"/>
<circle cx="774.236" cy="440.252" r="22.7717" transform="rotate(-90 774.236 440.252)" fill="#D9D9D9"/>
<circle cx="774.236" cy="857.732" r="22.7717" transform="rotate(-90 774.236 857.732)" fill="#D9D9D9"/>
<circle cx="273.26" cy="857.732" r="22.7717" transform="rotate(-90 273.26 857.732)" fill="#D9D9D9"/>
<circle cx="273.26" cy="22.7717" r="22.7717" transform="rotate(-90 273.26 22.7717)" fill="#D9D9D9"/>
<circle cx="774.236" cy="22.7717" r="22.7717" transform="rotate(-90 774.236 22.7717)" fill="#D9D9D9"/>
<circle cx="523.748" cy="1275.21" r="22.7717" transform="rotate(-90 523.748 1275.21)" fill="#D9D9D9"/>
<circle cx="22.7717" cy="1275.21" r="22.7717" transform="rotate(-90 22.7717 1275.21)" fill="#D9D9D9"/>
<circle cx="22.7717" cy="440.252" r="22.7717" transform="rotate(-90 22.7717 440.252)" fill="#D9D9D9"/>
<circle cx="523.748" cy="440.252" r="22.7717" transform="rotate(-90 523.748 440.252)" fill="#D9D9D9"/>
<circle cx="523.748" cy="857.732" r="22.7717" transform="rotate(-90 523.748 857.732)" fill="#D9D9D9"/>
<circle cx="22.7717" cy="857.732" r="22.7717" transform="rotate(-90 22.7717 857.732)" fill="#D9D9D9"/>
<circle cx="22.7717" cy="22.7717" r="22.7717" transform="rotate(-90 22.7717 22.7717)" fill="#D9D9D9"/>
<circle cx="523.748" cy="22.7717" r="22.7717" transform="rotate(-90 523.748 22.7717)" fill="#D9D9D9"/>
</g>
</svg>
